<svg width="25" height="25" viewBox="0 0 25 25" fill="none" xmlns="http://www.w3.org/2000/svg">
    <path d="M9.63802 4.6875C9.05665 4.6875 8.48097 4.80201 7.94385 5.02449C7.40673 5.24697 6.91869 5.57307 6.5076 5.98416C6.09651 6.39526 5.77041 6.88329 5.54793 7.42041C5.32545 7.95753 5.21094 8.53321 5.21094 9.11458C5.21094 9.69596 5.32545 10.2716 5.54793 10.8088C5.77041 11.3459 6.09651 11.8339 6.5076 12.245C6.91869 12.6561 7.40673 12.9822 7.94385 13.2047C8.48097 13.4272 9.05665 13.5417 9.63802 13.5417C10.2194 13.5417 10.7951 13.4272 11.3322 13.2047C11.8693 12.9822 12.3573 12.6561 12.7684 12.245C13.1795 11.8339 13.5056 11.3459 13.7281 10.8088C13.9506 10.2716 14.0651 9.69596 14.0651 9.11458C14.0651 8.53321 13.9506 7.95753 13.7281 7.42041C13.5056 6.88329 13.1795 6.39526 12.7684 5.98416C12.3573 5.57307 11.8693 5.24697 11.3322 5.02449C10.7951 4.80201 10.2194 4.6875 9.63802 4.6875Z" fill="white"/>
    <path d="M9.89583 13.0195C8.9289 13.0195 8.00157 13.4036 7.31784 14.0874C6.63411 14.7711 6.25 15.6984 6.25 16.6654C6.25 17.6323 6.63411 18.5596 7.31784 19.2434C8.00157 19.9271 8.9289 20.3112 9.89583 20.3112C10.8628 20.3112 11.7901 19.9271 12.4738 19.2434C13.1576 18.5596 13.5417 17.6323 13.5417 16.6654C13.5417 15.6984 13.1576 14.7711 12.4738 14.0874C11.7901 13.4036 10.8628 13.0195 9.89583 13.0195Z" fill="white"/>
    <path d="M5.73177 9.89453C4.76484 9.89453 3.8375 10.2786 3.15378 10.9624C2.47005 11.6461 2.08594 12.5734 2.08594 13.5404C2.08594 14.5073 2.47005 15.4346 3.15378 16.1184C3.8375 16.8021 4.76484 17.1862 5.73177 17.1862C6.69871 17.1862 7.62604 16.8021 8.30976 16.1184C8.99349 15.4346 9.3776 14.5073 9.3776 13.5404C9.3776 12.5734 8.99349 11.6461 8.30976 10.9624C7.62604 10.2786 6.69871 9.89453 5.73177 9.89453ZM19.7943 9.89453C19.3839 9.89453 18.9775 9.97536 18.5984 10.1324C18.2192 10.2895 17.8747 10.5196 17.5846 10.8098C17.2944 11.1 17.0642 11.4445 16.9071 11.8236C16.7501 12.2028 16.6693 12.6092 16.6693 13.0195C16.6693 13.4299 16.7501 13.8363 16.9071 14.2154C17.0642 14.5946 17.2944 14.9391 17.5846 15.2292C17.8747 15.5194 18.2192 15.7496 18.5984 15.9067C18.9775 16.0637 19.3839 16.1445 19.7943 16.1445C20.2047 16.1445 20.611 16.0637 20.9902 15.9067C21.3693 15.7496 21.7138 15.5194 22.004 15.2292C22.2942 14.9391 22.5244 14.5946 22.6814 14.2154C22.8384 13.8363 22.9193 13.4299 22.9193 13.0195C22.9193 12.6092 22.8384 12.2028 22.6814 11.8236C22.5244 11.4445 22.2942 11.1 22.004 10.8098C21.7138 10.5196 21.3693 10.2895 20.9902 10.1324C20.611 9.97536 20.2047 9.89453 19.7943 9.89453Z" fill="white"/>
    <path d="M15.625 12.5C14.7962 12.5 14.0013 12.8292 13.4153 13.4153C12.8292 14.0013 12.5 14.7962 12.5 15.625C12.5 16.4538 12.8292 17.2487 13.4153 17.8347C14.0013 18.4208 14.7962 18.75 15.625 18.75C16.4538 18.75 17.2487 18.4208 17.8347 17.8347C18.4208 17.2487 18.75 16.4538 18.75 15.625C18.75 14.7962 18.4208 14.0013 17.8347 13.4153C17.2487 12.8292 16.4538 12.5 15.625 12.5Z" fill="white"/>
    <path d="M15.8854 6.25C14.9875 6.25 14.1265 6.60668 13.4916 7.24157C12.8567 7.87645 12.5 8.73755 12.5 9.63542C12.5 10.5333 12.8567 11.3944 13.4916 12.0293C14.1265 12.6642 14.9875 13.0208 15.8854 13.0208C16.7833 13.0208 17.6444 12.6642 18.2793 12.0293C18.9142 11.3944 19.2708 10.5333 19.2708 9.63542C19.2708 8.73755 18.9142 7.87645 18.2793 7.24157C17.6444 6.60668 16.7833 6.25 15.8854 6.25Z" fill="white"/>
    <path d="M11.9818 8.85547C11.503 8.85547 11.0289 8.94977 10.5866 9.13299C10.1442 9.31621 9.74232 9.58476 9.40378 9.92331C9.06523 10.2619 8.79668 10.6638 8.61346 11.1061C8.43024 11.5484 8.33594 12.0225 8.33594 12.5013C8.33594 12.9801 8.43024 13.4542 8.61346 13.8965C8.79668 14.3388 9.06523 14.7407 9.40378 15.0793C9.74232 15.4178 10.1442 15.6864 10.5866 15.8696C11.0289 16.0528 11.503 16.1471 11.9818 16.1471C12.4605 16.1471 12.9346 16.0528 13.377 15.8696C13.8193 15.6864 14.2212 15.4178 14.5598 15.0793C14.8983 14.7407 15.1669 14.3388 15.3501 13.8965C15.5333 13.4542 15.6276 12.9801 15.6276 12.5013C15.6276 12.0225 15.5333 11.5484 15.3501 11.1061C15.1669 10.6638 14.8983 10.2619 14.5598 9.92331C14.2212 9.58476 13.8193 9.31621 13.377 9.13299C12.9346 8.94977 12.4605 8.85547 11.9818 8.85547Z" fill="white"/>
</svg>
